<svg width="438" height="404" viewBox="0 0 438 404" fill="none" xmlns="http://www.w3.org/2000/svg">
<path d="M233.653 8.83633C234.507 11.1637 233.22 15.1624 234.507 17.3698C235.506 19.0838 235.36 20.4728 237.067 21.2486C239.819 22.4995 237.92 25.9032 237.067 25.9032C235.123 25.9032 235.36 27.4546 235.36 29.0061C235.36 31.1268 235.743 32.3593 236.213 34.4364L236.235 34.5324C236.821 37.1203 237.098 38.3434 239.627 40.6425C241.135 42.0142 236.731 42.6393 236.213 44.5213C235.36 47.6243 236.91 50.0942 234.507 52.2788C231.443 55.0637 223.746 49.9036 223.413 53.8304C223.308 55.0758 223.884 58.8367 224.267 60.0364C225.059 62.5226 226.304 63.7407 227.68 66.2425C228.363 67.485 230.24 70.5363 230.24 74.0001C230.24 79.4855 230.062 80.6116 230.24 84.8607C230.442 89.7044 230.24 91.6498 230.24 96.497C230.24 100.738 228.533 105.806 231.093 106.582C241.308 109.677 245.939 115.4 256.693 115.891C258.357 115.967 260.16 115.704 261.813 115.891C265.809 116.343 269.107 117.089 270.907 120.363C271.761 121.914 271.866 125.974 274.613 129.079C277.856 132.743 280.808 132.919 285.707 131.406C287.982 130.704 288.923 129.637 290.827 128.303C295.497 125.032 296.777 121.747 300.213 118.218C303.042 115.314 304.243 114.942 307.04 112.012C311.982 106.835 314.72 102.703 320.693 99.6C323.026 98.3882 325.813 98.8243 327.52 98.0486C329.227 97.2729 329.546 93.7433 332.64 92.6182C336.907 91.0668 341.425 90.4831 347.147 89.5152C356.047 88.0096 359.947 85.6365 371.893 86.4122C383.84 87.188 384.101 87.0031 392.373 89.5152C398.028 91.2321 400.492 93.7078 406.027 95.7212C411.213 97.608 414.097 99.4296 419.68 99.6C422.696 99.6921 424.343 98.8997 427.36 98.8243C431.371 98.7239 432.94 97.6706 436.747 98.8244C439.307 99.6002 431.331 104.368 428.213 108.133C425.876 110.956 422.707 112.376 423.093 115.891C423.947 123.649 421.72 128.64 421.387 136.836C421.055 145.011 421.387 149.602 421.387 157.782C421.387 162.629 422.028 165.382 421.387 170.194C420.978 173.261 420.346 174.922 419.68 177.952C419.013 180.981 418.914 182.74 417.973 185.709C416.568 190.143 415.722 193.432 412 196.57C408.596 199.439 406.88 200.448 401.76 200.448C398.461 200.448 399.081 195.184 395.787 195.018C393.104 194.884 393.353 198.121 390.667 198.121C388.107 198.121 385.482 193.074 382.133 190.364C380.539 189.074 377.867 187.261 377.867 187.261C377.867 187.261 371.04 186.485 368.48 185.709C365.92 184.933 362.181 181.369 359.093 183.382C357.514 184.411 357.406 185.682 356.533 187.261C354.354 191.202 354.971 192.625 353.12 198.121C351.269 203.617 348.177 206.339 348 212.085C347.916 214.827 348.64 216.33 348.853 219.067C349.23 223.902 349.639 226.684 348.853 231.479C348.03 236.502 346.026 238.984 344.587 243.891C343.441 247.796 342.88 248.546 342.88 253.2C342.88 255.529 340.743 257.471 339.525 258.578L339.467 258.63C337.76 260.182 343.531 264.788 348 267.939C353.422 271.763 355.68 272.594 363.36 275.697C369.024 277.986 373.6 280.351 376.16 284.23C378.72 288.109 380.87 292.457 382.133 298.194C383.573 304.729 382.133 309.83 382.133 315.261C382.133 320.691 381.28 329.224 381.28 338.533C381.28 342.944 384.677 344.983 384.693 349.394C384.714 354.855 379.898 357.128 379.573 362.582C379.336 366.561 380.427 371.891 379.573 373.443C378.72 374.994 374.812 377.567 373.6 381.976C372.747 385.079 371.848 390.556 368.48 388.958C367.003 388.257 366.008 387.105 365.067 385.855C362.121 381.941 360.8 379.649 359.093 374.994C357.687 371.159 359.093 367.236 361.653 364.909C364.726 362.116 367.551 360.325 367.627 356.376C367.669 354.171 366.158 353.14 365.92 350.945C365.554 347.575 367.255 345.782 367.627 342.412C368.093 338.192 367.744 335.792 367.627 331.552C367.399 323.352 369.807 318.008 365.92 310.606C363.967 306.887 363.239 304.13 359.947 301.297C354.098 296.265 348.853 296.643 340.32 294.315C334.746 292.795 331.966 291.072 326.667 288.885C319.609 285.972 313.013 281.127 308.747 281.127C306.187 281.127 304.197 287.563 301.92 291.988C299.953 295.81 299.055 298.05 297.653 302.073C295.896 307.116 295.89 310.187 294.24 315.261C292.384 320.965 291.348 322.848 288.536 327.96L288.267 328.449C285.707 333.103 285.146 334.329 283.147 340.085C281.147 345.841 278.958 354.278 278.027 360.255C277.232 365.354 276.534 367.698 278.027 372.667C279.442 377.379 282.66 377.516 284.853 381.976C286.445 385.213 286.56 387.406 287.413 392.061C288.148 396.07 282.293 395.939 278.027 396.715C273.766 397.49 270.347 396.715 266.933 395.94C264.327 395.347 264.129 392.888 263.52 390.509C262.667 387.175 265.371 385.36 265.227 381.976C265.107 379.185 265.84 378.507 265.227 375.77C264.482 372.451 261.669 369.845 261.813 366.461C261.933 363.67 262.807 362.196 263.52 359.479C264.721 354.904 265.76 352.423 266.933 347.842C268.089 343.329 268.547 340.76 269.493 336.206C270.561 331.067 271.98 328.248 272.053 323.018C272.1 319.672 271.086 317.829 271.2 314.485C271.326 310.801 272.079 308.784 272.907 305.176C274.393 298.699 276.911 295.423 278.027 288.885C279.406 280.802 278.88 272.594 278.027 267.939C277.742 266.388 266.08 265.612 256.693 265.612C255.203 265.612 255.027 265.304 254.133 266.388C253.493 267.164 254.987 267.164 257.547 270.267C259.255 272.338 251.861 272.594 249.013 272.594C242.187 272.594 240.268 271.848 233.653 272.594C227.878 273.245 225.521 274.8 220 276.473C217.44 277.249 213.929 277.71 212.32 276.473C209.013 273.929 211.467 271.818 210.613 265.612C210.263 263.066 199.334 265.471 190.133 264.061C183.272 263.008 173.067 260.182 167.093 257.855C155.657 253.399 150.356 247.686 140.64 254.752C136.373 257.855 135.877 260.959 130.4 267.939C125.444 274.257 121.946 277.301 116.747 283.455C113.701 287.058 111.58 288.883 109.067 292.764C106.071 297.39 105.443 299.811 105.653 305.176C105.951 312.763 109.402 316.02 114.187 322.242C119.594 329.274 125.461 331.223 130.4 338.533C132.74 341.997 134.965 343.034 135.52 347.067C136.373 353.273 135.52 359.19 135.52 366.461C135.52 370.702 137.296 373.399 135.52 377.321C134.605 379.341 134.667 379.649 132.107 381.976C129.03 384.773 126.045 382.26 123.573 378.873C121.695 376.298 121.013 374.994 119.307 371.115C117.6 367.236 117.687 364.816 118.453 361.806C119.205 358.855 123.573 359.479 123.573 355.6C123.573 351.721 122.72 352.497 120.16 350.17C118.275 348.456 120.339 344.902 118.453 343.188C115.04 340.085 113.79 338.307 109.92 335.43C103.167 330.412 98.4443 327.585 92 322.242C86.4177 317.614 84.3199 315.261 78.3466 310.606C75.0187 308.013 75.0239 304.445 75.7866 300.521C76.3578 297.583 78.5979 296.473 79.2 293.539C80.6696 286.38 68.9165 300.538 64.6933 306.727C61.3007 311.699 59.2628 316.531 57.8666 322.242C56.1599 329.224 55.4762 331.243 51.8933 337.758C48.4799 343.964 47.6266 348.618 47.6266 355.6C47.6266 365.294 45.92 374.994 47.6266 380.424C48.4707 383.11 50.946 383.591 52.7466 385.855C55.6303 389.479 57.164 391.696 58.72 395.94C59.5733 398.267 57.7098 400.278 55.3066 401.37C50.1866 403.697 49.3333 402.921 42.5066 403.697C39.458 404.044 37.0291 402.722 35.68 399.043C34.8266 396.715 37.0751 394.839 37.3866 392.061C37.6569 389.649 37.8992 388.233 37.3866 385.855C36.5838 382.129 32.2666 381.117 32.2666 377.321C32.2666 369.564 33.12 365.685 32.2666 357.927C31.4925 350.89 34.2851 347.043 35.68 340.085C37.5665 330.674 34.7676 324.525 37.3866 315.261C39.1186 309.134 43.5071 306.455 45.92 300.521C48.7125 293.654 50.4962 289.434 53.6 282.679C56.0805 277.28 57.8666 274.146 60.4266 269.491C62.0928 266.461 61.9833 264.342 62.1333 260.958C62.5151 252.342 56.955 248.329 54.4533 240.012C52.4702 233.419 51.0331 229.737 50.1866 222.945C49.3237 216.022 48.7321 211.944 50.1866 205.103C51.6898 198.033 53.1788 193.841 57.8666 188.036C62.0595 182.845 68.1066 181.055 71.52 177.176C72.2026 176.4 68.1899 174.306 65.5466 173.297C59.3324 170.926 57.0133 171.889 50.1866 174.073C45.9692 175.422 41.6533 177.176 39.0933 180.279C36.5333 183.382 36.2611 187.311 35.68 191.915C34.8821 198.236 34.8266 202 35.68 208.206C36.5333 214.412 39.7103 218.028 41.6533 224.497C43.8052 231.662 45.1092 235.725 45.92 243.115C46.6807 250.049 45.92 253.976 43.36 260.182C39.807 268.795 37.4314 270.931 33.9733 279.576C30.56 288.109 29.7066 287.333 28 297.418C27.0439 303.068 26.2698 311.457 24.5866 316.812C22.88 322.243 22.2718 325.65 19.4666 330C17.3548 333.275 16.1121 334.098 12.64 336.206C8.48339 338.73 -2.4524 341.26 1.54664 338.533C4.95996 336.206 6.14325 335.091 8.37331 332.327C13.6807 325.75 14.3466 320.315 14.3466 312.158C14.3466 304 9.30016 300.102 8.37331 291.988C7.37269 283.229 9.12033 278.254 10.08 269.491C10.6451 264.331 11.4748 261.481 11.7866 256.303C12.3707 246.604 11.3187 241.127 10.08 231.479C9.1018 223.86 6.05602 219.735 6.66664 212.085C7.08784 206.808 8.34875 203.948 10.08 198.897C13.7155 188.289 17.76 181.83 22.88 176.4C25.8298 173.272 28.8533 170.97 33.12 167.091C37.1466 163.43 41.1283 163.118 46.7733 162.436C55.5881 161.373 61.28 163.988 68.96 167.091C76.2686 170.044 81.4481 167.375 89.44 167.091C97.7914 166.794 102.43 165.987 110.773 165.539C120.094 165.039 125.338 164.406 134.667 164.764C143.381 165.098 148.14 166.733 156.853 167.091C162.513 167.324 169.299 168.404 172.213 163.988C177.333 156.23 176.158 156.045 179.893 149.249C182.96 143.668 186.061 141.141 188.427 135.285C189.736 132.042 190.279 130.145 190.987 126.752C192.664 118.715 193.809 117.801 192.693 109.685C191.84 103.479 191.224 98.7089 190.987 94.1697C190.603 86.8506 188.427 82.879 188.427 75.5516C188.427 68.2241 187.232 63.4171 190.987 56.9334C193.733 52.1908 202.02 52.1596 201.227 46.8485C200.804 44.0165 198.667 46.8485 197.813 41.4182C197.425 38.9451 198.667 35.5335 198.667 34.4364L198.667 31.3335C198.667 28.2304 198.667 28.2304 199.52 25.9031C200.186 24.0854 201.227 22.8001 201.227 21.2485C201.227 18.8249 197.527 11.0271 198.667 8.83634C200.389 5.52741 204.238 3.80107 208.053 2.6304C212.883 1.14833 220.888 -0.0157614 225.973 0.303087C229.764 0.540742 232.452 5.55939 233.653 8.83633Z" fill="#2660A7"/>
</svg>
